<svg xmlns="http://www.w3.org/2000/svg" width="1000" height="1000" viewBox="0 0 1000 1000">
  <defs>
    <style>
      .cls-1 {
        fill: #ff8cff;
        stroke-width: 37.417px;
      }

      .cls-1, .cls-3 {
        stroke: #000;
        stroke-linecap: round;
        stroke-linejoin: round;
      }

      .cls-1, .cls-2, .cls-3, .cls-4 {
        fill-rule: evenodd;
      }

      .cls-3 {
        fill: #8b8c7a;
        stroke-width: 29.167px;
      }

      .cls-4 {
        fill: #a6a3a5;
      }
    </style>
  </defs>
  <path class="cls-1" d="M29.651,856.044l818-.937s-32.561-58.8-28.11-98.384S866.623,630.931,869.2,555.269,807.592,409.8,787.681,343.508,712.487,144.63,532.818,144.864,150.289,331.561,148.65,673.33C235.556,774.76,273.973,786.472,400.7,801.7c-84.1-4.451-204.031-39.12-250.178-129.306C69.239,756.488,12.785,788.581,29.651,856.044Z"/>
  <path class="cls-2" d="M416.628,306.965c18.564,0,37.347,22.565,37.347,49.085S434.125,406.2,415.561,406.2s-37.347-23.633-37.347-50.152S398.064,306.965,416.628,306.965Zm0,0c18.564,0,37.347,22.565,37.347,49.085S434.125,406.2,415.561,406.2s-37.347-23.633-37.347-50.152S398.064,306.965,416.628,306.965Zm0,0c18.564,0,37.347,22.565,37.347,49.085S434.125,406.2,415.561,406.2s-37.347-23.633-37.347-50.152S398.064,306.965,416.628,306.965Z"/>
  <path class="cls-2" d="M737.6,306.965c16.973,0,34.148,20.632,34.148,44.88S753.6,397.7,736.628,397.7s-34.149-21.608-34.149-45.857S720.63,306.965,737.6,306.965Zm0,0c16.973,0,34.148,20.632,34.148,44.88S753.6,397.7,736.628,397.7s-34.149-21.608-34.149-45.857S720.63,306.965,737.6,306.965Zm0,0c16.973,0,34.148,20.632,34.148,44.88S753.6,397.7,736.628,397.7s-34.149-21.608-34.149-45.857S720.63,306.965,737.6,306.965Z"/>
  <path class="cls-3" d="M610.589,661.149s-64.419-64.418-78.708-143.36-11.947-203.563,14.992-219.257c32.215-10.889,89.717-9.6,123.683,11.244,15.58,20.138,13.353,171.7,4.685,202.391S630.266,627.417,610.589,661.149Z"/>
  <path class="cls-2" d="M298,431H515V394h28V367l28,1V333l66,1v33h28v38h25l-1,26H907V406h32l1-37h23V335h31V279H212l1,55h34v34h22v27h30Z"/>
  <path class="cls-4" d="M259,313v31h63v63h33V375H290V313"/>
  <path class="cls-4" d="M322,313v31h63v63h33V375H353V313"/>
  <path class="cls-4" d="M658,313v31h63v63h33V375H689V313"/>
  <path class="cls-4" d="M721,313v31h63v63h33V375H752V313"/>
</svg>
